<svg xmlns="http://www.w3.org/2000/svg" viewBox="0 0 1500 1500" width="100%" height="100%" shape-rendering="geometricPrecision">
  <circle cx="750" cy="750" r="750" fill="#2f80ed" />

  <g transform="matrix(0.9, 0, 0, 0.9, 75, 75)">
    
    <path fill="#ffffff" d="M 701.441406 920.425781 C 514.0625 917.171875 363.230469 764.226562 363.230469 575.882812 C 363.230469 387.75 514.0625 234.808594 701.441406 231.550781 Z" fill-rule="nonzero"/>

    <path fill="#ffffff" d="M 798.554688 576.003906 C 985.933594 579.257812 1136.769531 732.203125 1136.769531 920.546875 C 1136.769531 1108.679688 985.933594 1261.621094 798.554688 1264.878906 Z" fill-rule="nonzero"/>

    <path fill="#ffffff" d="M 808.738281 473.371094 L 808.738281 231.3125 L 809.308594 231.3125 C 841.90625 231.3125 873.535156 237.699219 903.304688 250.289062 C 917.613281 256.34375 931.414062 263.835938 944.324219 272.554688 C 957.113281 281.195312 969.136719 291.117188 980.0625 302.042969 C 990.992188 312.96875 1000.910156 324.996094 1009.550781 337.78125 C 1018.273438 350.691406 1025.761719 364.492188 1031.816406 378.800781 C 1044.40625 408.574219 1050.792969 440.199219 1050.792969 472.796875 L 1050.792969 473.371094 Z" fill-rule="nonzero"/>

    <path fill="#ffffff" d="M 701.433594 983.453125 L 701.433594 1265.117188 L 700.769531 1265.117188 C 662.835938 1265.117188 626.035156 1257.6875 591.390625 1243.035156 C 574.738281 1235.992188 558.679688 1227.273438 543.660156 1217.125 C 528.78125 1207.074219 514.789062 1195.53125 502.070312 1182.816406 C 489.355469 1170.097656 477.8125 1156.105469 467.761719 1141.226562 C 457.609375 1126.207031 448.894531 1110.144531 441.851562 1093.496094 C 427.199219 1058.851562 419.769531 1022.054688 419.769531 984.117188 L 419.769531 983.453125 Z" fill-rule="nonzero"/>
    
  </g>
</svg>
